<?xml version="1.0" standalone="no"?>
<!DOCTYPE svg PUBLIC "-//W3C//DTD SVG 20010904//EN"
 "http://www.w3.org/TR/2001/REC-SVG-20010904/DTD/svg10.dtd">
<svg version="1.0" xmlns="http://www.w3.org/2000/svg"
 width="260.000000pt" height="260.000000pt" viewBox="0 0 260.000000 260.000000"
 preserveAspectRatio="xMidYMid meet">
<metadata>
Created by potrace 1.14, written by Peter Selinger 2001-2017
</metadata>
<g transform="translate(0.000000,260.000000) scale(0.100000,-0.100000)"
fill="#000000" stroke="none">
<path d="M0 1300 l0 -1300 1300 0 1300 0 0 1300 0 1300 -1300 0 -1300 0 0
-1300z m1996 784 c11 -8 27 -26 35 -41 8 -15 117 -180 243 -367 218 -323 230
-343 230 -388 0 -54 -17 -91 -52 -114 -32 -21 -92 -23 -126 -4 -16 8 -72 82
-137 182 -62 92 -114 168 -118 168 -32 -1 -33 -13 -39 -589 l-5 -571 -125 0
-125 0 4 568 4 567 -21 3 c-17 2 -45 -29 -141 -155 -111 -146 -136 -171 -186
-187 -50 -16 -129 35 -140 91 -12 59 8 92 212 359 112 147 215 288 229 313 13
25 32 54 42 63 11 10 26 33 35 52 33 70 115 92 181 50z m-1016 -42 c82 -6 122
-13 141 -25 74 -49 70 -168 -9 -208 -15 -8 -30 -18 -33 -22 -3 -5 -62 -3 -130
4 -151 15 -564 18 -578 4 -5 -5 -12 -22 -16 -36 -9 -38 70 -131 395 -464 282
-288 377 -400 432 -509 54 -106 40 -225 -34 -292 -34 -32 -115 -70 -178 -84
-95 -21 -320 -23 -560 -6 -265 19 -310 25 -310 38 0 5 -8 22 -18 36 -42 59
-37 114 15 168 34 36 35 37 91 30 175 -20 402 -36 512 -35 l125 0 23 36 c21
32 23 45 17 92 -8 64 11 42 -375 436 -324 331 -408 446 -418 572 -4 54 -1 70
23 119 40 83 125 131 270 154 62 9 415 5 615 -8z"/>
</g>
</svg>
